 <svg
          width="72"
          height="44"
          viewBox="0 0 72 44"
          fill="none"
          xmlns="http://www.w3.org/2000/svg"
        >
          <g clip-path="url(#clip0_4_7)">
            <rect width="72" height="44" fill="white" />
            <path
              fill-rule="evenodd"
              clip-rule="evenodd"
              d="M35.9341 10.6864L32.6506 13.9365L32.7881 14.0724C35.4875 16.7378 36.8365 18.0705 37.3943 19.5865C37.9846 21.188 37.9846 22.9509 37.3943 24.5524C36.8365 26.0683 35.4875 27.4025 32.7881 30.0679L36.0701 33.3105L39.0724 30.3443C42.036 27.4179 43.5163 25.9538 44.0586 24.2609C44.5145 22.8363 44.5145 21.3026 44.0586 19.8781C43.5163 18.185 42.036 16.7211 39.0724 13.7946L35.9341 10.6864ZM35.9341 10.6864L30.5754 5.39989C27.6135 2.47327 26.1317 1.00934 24.4133 0.475141C22.9678 0.0232347 21.4211 0.0232347 19.9757 0.475141C18.2621 1.00934 16.7818 2.47342 13.8183 5.39989L5.31983 13.7961C2.36553 16.7211 0.883712 18.185 0.342793 19.8781C-0.11459 21.3024 -0.11459 22.8365 0.342793 24.2609C0.883559 25.9522 2.36553 27.4179 5.32764 30.3443L13.8259 38.7406C16.7896 41.667 18.2699 43.131 19.9835 43.6669C21.4274 44.1135 22.9706 44.1114 24.4133 43.6607C26.1254 43.1249 27.6072 41.6608 30.5693 38.7344L36.064 33.3058L41.4225 38.5985C44.3846 41.5265 45.8664 42.9891 47.5785 43.5248C49.0242 43.9752 50.5704 43.9752 52.0161 43.5248C53.7297 42.9891 55.21 41.5265 58.1737 38.5985L66.6721 30.2023C69.6341 27.2758 71.1159 25.8119 71.6568 24.1203C72.1141 22.6955 72.1141 21.1609 71.6568 19.736C71.1159 18.0431 69.6341 16.5805 66.6721 13.6525L58.1737 5.25627C55.2161 2.33739 53.736 0.873464 52.0224 0.339267C50.5769 -0.112642 49.0301 -0.112642 47.5846 0.339267C45.8725 0.873464 44.3909 2.33755 41.4288 5.26401L35.9341 10.6864ZM32.6506 13.9365C29.9527 16.6019 28.6039 17.9346 28.0461 19.4506C27.4558 21.0521 27.4558 22.8151 28.0461 24.4166C28.6039 25.9324 29.9527 27.2666 32.6506 29.9321L32.7881 30.0679L30.5754 32.254C27.6135 35.1805 26.1317 36.6383 24.4133 37.1787C22.9678 37.6307 21.4211 37.6307 19.9757 37.1787C18.2621 36.6445 16.7818 35.1805 13.8183 32.254L11.8976 30.3443C8.92933 27.4179 7.44904 25.9522 6.90659 24.2609C6.45072 22.8363 6.45072 21.3026 6.90659 19.8781C7.44904 18.185 8.92933 16.7211 11.8976 13.7946L13.829 11.8863C16.7926 8.95831 18.2729 7.49577 19.9867 6.96003C21.4322 6.50813 22.9789 6.50813 24.4243 6.96003C26.1364 7.49593 27.6182 8.95831 30.5803 11.8863L32.6507 13.9365H32.6506Z"
              fill="black"
            />
          </g>
          <defs>
            <clipPath id="clip0_4_7">
              <rect width="72" height="44" fill="white" />
            </clipPath>
          </defs>
        </svg>